<svg height="511pt" viewBox="1 -19 511.999 511" width="511pt" xmlns="http://www.w3.org/2000/svg"><path d="m208.054688 361.714844v35.652344c0 11.667968-5.777344 22.5-15.265626 28.621093l-22.914062 16.851563h172.25l-22.914062-16.851563c-9.488282-6.121093-15.265626-16.953125-15.265626-28.621093v-35.652344c-31.53125 0-64.359374 0-95.890624 0zm0 0" fill="#c7d2e5"/><path d="m243.695312 397.367188v-35.65625c-11.972656 0-23.898437 0-35.640624 0v35.65625c0 11.664062-5.777344 22.496093-15.265626 28.621093l-22.914062 16.851563h35.640625l22.914063-16.851563c9.488281-6.125 15.265624-16.957031 15.265624-28.621093zm0 0" fill="#bac7db"/><path d="m358.160156 440.78125h-204.320312c-5.6875 0-10.300782 4.609375-10.300782 10.300781v11.535157c0 5.6875 4.613282 10.300781 10.300782 10.300781h204.320312c5.6875 0 10.300782-4.613281 10.300782-10.300781v-11.535157c0-5.691406-4.613282-10.300781-10.300782-10.300781zm0 0" fill="#e4eaf8"/><path d="m358.160156 452.910156h-204.320312c-4.175782 0-7.765625-2.492187-9.382813-6.066406-.582031 1.292969-.917969 2.726562-.917969 4.238281v11.535157c0 5.6875 4.613282 10.300781 10.300782 10.300781h204.320312c5.6875 0 10.300782-4.613281 10.300782-10.300781v-11.535157c0-1.511719-.335938-2.945312-.917969-4.238281-1.617188 3.574219-5.207031 6.066406-9.382813 6.066406zm0 0" fill="#c7d2e5"/><path d="m482.3125.5h-452.625c-16.371094 0-29.6875 13.316406-29.6875 29.6875v306.988281c0 16.371094 13.316406 29.6875 29.6875 29.6875h452.621094c16.371094 0 29.691406-13.316406 29.691406-29.6875v-306.988281c0-16.371094-13.316406-29.6875-29.6875-29.6875zm0 0" fill="#576574"/><path d="m32.136719 337.175781v-306.988281c0-16.371094 13.320312-29.6875 29.6875-29.6875h-32.136719c-16.371094 0-29.6875 13.316406-29.6875 29.6875v306.988281c0 16.371094 13.316406 29.6875 29.6875 29.6875h32.136719c-16.367188 0-29.6875-13.316406-29.6875-29.6875zm0 0" fill="#3e4b5a"/><path d="m32.136719 68.785156v261.667969c0 2.359375 1.914062 4.273437 4.269531 4.273437h439.183594c2.359375 0 4.273437-1.914062 4.273437-4.273437 0-6.921875 0-186.242187 0-261.671875h-447.726562zm0 0" fill="#e4eaf8"/><path d="m63.046875 330.457031v-261.671875h-30.910156v261.671875c0 2.359375 1.914062 4.269531 4.269531 4.269531h30.910156c-2.359375 0-4.269531-1.910156-4.269531-4.269531zm0 0" fill="#c7d2e5"/><path d="m475.589844 32.636719h-439.179688c-2.359375 0-4.273437 1.910156-4.273437 4.269531v33.9375h447.726562c0-17.882812 0-30.339844 0-33.9375 0-2.359375-1.914062-4.269531-4.273437-4.269531zm0 0" fill="#54a0ff"/><path d="m78.53125 32.636719h-42.121094c-2.359375 0-4.273437 1.910156-4.273437 4.273437v33.933594h46.394531zm0 0" fill="#ff6b6b"/><path d="m67.316406 32.636719h-30.90625c-2.359375 0-4.273437 1.910156-4.273437 4.273437v33.933594h30.90625v-33.933594c0-2.363281 1.914062-4.273437 4.273437-4.273437zm0 0" fill="#ee5253"/><g fill="#54a0ff"><path d="m130.136719 208.777344h-55.578125c-2.820313 0-5.109375 2.289062-5.109375 5.109375v83.09375c0 2.824219 2.289062 5.109375 5.109375 5.109375h55.578125c2.824219 0 5.113281-2.285156 5.113281-5.109375v-83.09375c-.003906-2.820313-2.289062-5.109375-5.113281-5.109375zm0 0"/><path d="m232.570312 208.777344h-55.578124c-2.820313 0-5.109376 2.289062-5.109376 5.109375v83.09375c0 2.824219 2.289063 5.109375 5.109376 5.109375h55.578124c2.824219 0 5.109376-2.285156 5.109376-5.109375v-83.09375c0-2.820313-2.285157-5.109375-5.109376-5.109375zm0 0"/><path d="m335.003906 208.777344h-55.578125c-2.820312 0-5.109375 2.289062-5.109375 5.109375v83.09375c0 2.824219 2.289063 5.109375 5.109375 5.109375h55.578125c2.824219 0 5.113282-2.285156 5.113282-5.109375v-83.09375c0-2.820313-2.289063-5.109375-5.113282-5.109375zm0 0"/><path d="m437.441406 208.777344h-55.578125c-2.824219 0-5.113281 2.289062-5.113281 5.109375v83.09375c0 2.824219 2.289062 5.109375 5.113281 5.109375h55.578125c2.820313 0 5.109375-2.285156 5.109375-5.109375v-83.09375c0-2.820313-2.289062-5.109375-5.109375-5.109375zm0 0"/></g><path d="m99.464844 296.980469v-83.089844c0-2.824219 2.285156-5.113281 5.109375-5.113281h-30.015625c-2.820313 0-5.109375 2.289062-5.109375 5.113281v83.089844c0 2.824219 2.289062 5.113281 5.109375 5.113281h30.015625c-2.824219 0-5.109375-2.289062-5.109375-5.113281zm0 0" fill="#338def"/><path d="m201.894531 296.980469v-83.089844c0-2.824219 2.289063-5.113281 5.113281-5.113281h-30.015624c-2.820313 0-5.109376 2.289062-5.109376 5.113281v83.089844c0 2.824219 2.289063 5.113281 5.109376 5.113281h30.015624c-2.824218 0-5.113281-2.289062-5.113281-5.113281zm0 0" fill="#338def"/><path d="m304.332031 296.980469v-83.089844c0-2.824219 2.285157-5.113281 5.109375-5.113281h-30.015625c-2.820312 0-5.109375 2.289062-5.109375 5.113281v83.089844c0 2.824219 2.289063 5.113281 5.109375 5.113281h30.015625c-2.824218 0-5.109375-2.289062-5.109375-5.113281zm0 0" fill="#338def"/><path d="m406.765625 296.980469v-83.089844c0-2.824219 2.289063-5.113281 5.109375-5.113281h-30.011719c-2.824219 0-5.113281 2.289062-5.113281 5.113281v83.089844c0 2.824219 2.289062 5.113281 5.113281 5.113281h30.011719c-2.820312 0-5.109375-2.289062-5.109375-5.113281zm0 0" fill="#338def"/><path d="m438.105469 101.734375c-15.625 0-348.445313 0-364.210938 0-2.457031 0-4.445312 1.992187-4.445312 4.445313v68.101562c0 2.453125 1.988281 4.445312 4.445312 4.445312h364.210938c2.457031 0 4.445312-1.992187 4.445312-4.445312v-68.101562c0-2.453126-1.992187-4.445313-4.445312-4.445313zm0 0" fill="#feca57"/><path d="m99.464844 174.28125v-68.101562c0-2.453126 1.988281-4.445313 4.441406-4.445313-16.542969 0-27.457031 0-30.011719 0-2.457031 0-4.445312 1.992187-4.445312 4.445313v68.101562c0 2.453125 1.988281 4.445312 4.445312 4.445312h30.011719c-2.453125 0-4.441406-1.992187-4.441406-4.445312zm0 0" fill="#f4b537"/></svg>